<?xml version="1.0" encoding="utf-8"?>
<!-- Generator: Adobe Illustrator 15.0.0, SVG Export Plug-In . SVG Version: 6.00 Build 0)  -->
<!DOCTYPE svg PUBLIC "-//W3C//DTD SVG 1.1//EN" "http://www.w3.org/Graphics/SVG/1.1/DTD/svg11.dtd">
<svg version="1.1" id="Ebene_1" xmlns="http://www.w3.org/2000/svg" xmlns:xlink="http://www.w3.org/1999/xlink" x="0px" y="0px"
	 width="2007.201px" height="423.043px" viewBox="0 0 2007.201 423.043" enable-background="new 0 0 2007.201 423.043"
	 xml:space="preserve">
<g>
	<g>
		<rect x="33.223" y="25.203" fill="#F1DB4E" width="355" height="372"/>
		<g>
			<rect x="17.223" y="53.203" fill="#F1DB4E" width="24" height="46"/>
			<rect x="17.223" y="120.203" fill="#F1DB4E" width="24" height="46"/>
			<rect x="17.223" y="188.203" fill="#F1DB4E" width="24" height="46"/>
			<rect x="17.223" y="257.203" fill="#F1DB4E" width="24" height="46"/>
			<rect x="17.223" y="325.203" fill="#F1DB4E" width="24" height="46"/>
		</g>
		<rect x="84.223" y="69.203" fill="#323230" width="254" height="35"/>
		<rect x="84.223" y="131.203" fill="#323230" width="156" height="35"/>
		<rect x="46.223" y="378.203" fill="#FFFFFF" width="329" height="9"/>
	</g>
	<g>
		<path fill="#323230" d="M462.746,319.844v-220.1h147.869v37.51h-105.09v56.73h87.42v34.72h-87.42v91.14H462.746z"/>
		<path fill="#323230" d="M732.136,193.364c-12.608,0.208-23.87,2.635-33.79,7.285c-9.92,4.65-17.05,11.625-21.391,20.925v98.27
			h-41.54v-162.44h38.131v34.72c5.579-11.16,12.864-20.15,21.854-26.97s18.445-10.23,28.365-10.23c2.271,0,3.977,0.053,5.115,0.155
			c1.133,0.107,2.218,0.262,3.255,0.465V193.364z"/>
		<path fill="#323230" d="M826.375,322.943c-13.228,0-25.109-2.276-35.649-6.819c-10.54-4.544-19.481-10.695-26.815-18.445
			c-7.338-7.75-12.972-16.687-16.895-26.815c-3.929-10.123-5.891-20.77-5.891-31.93c0-11.363,1.962-22.111,5.891-32.24
			c3.923-10.124,9.557-19.065,16.895-26.815c7.334-7.75,16.275-13.897,26.815-18.445c10.54-4.543,22.422-6.82,35.649-6.82
			c13.224,0,25.057,2.276,35.495,6.82c10.434,4.548,19.322,10.695,26.66,18.445c7.333,7.75,12.967,16.691,16.896,26.815
			c3.923,10.128,5.89,20.876,5.89,32.24c0,11.16-1.967,21.807-5.89,31.93c-3.929,10.129-9.509,19.065-16.74,26.815
			c-7.236,7.75-16.12,13.901-26.66,18.445C851.485,320.667,839.599,322.943,826.375,322.943z M783.905,238.934
			c0,7.236,1.085,13.795,3.255,19.686c2.17,5.89,5.164,11.005,8.99,15.345c3.821,4.34,8.316,7.701,13.485,10.075
			c5.163,2.378,10.743,3.564,16.739,3.564c5.992,0,11.572-1.187,16.74-3.564c5.163-2.374,9.658-5.735,13.485-10.075
			c3.821-4.34,6.819-9.504,8.989-15.5c2.171-5.992,3.256-12.604,3.256-19.84c0-7.023-1.085-13.534-3.256-19.53
			c-2.17-5.992-5.168-11.16-8.989-15.5c-3.827-4.34-8.322-7.697-13.485-10.075c-5.168-2.373-10.748-3.565-16.74-3.565
			c-5.996,0-11.576,1.24-16.739,3.72c-5.169,2.48-9.664,5.89-13.485,10.23c-3.826,4.34-6.82,9.508-8.99,15.5
			C784.99,225.4,783.905,231.91,783.905,238.934z"/>
		<path fill="#323230" d="M1089.564,319.844h-41.54v-91.14c0-13.021-2.276-22.524-6.82-28.521c-4.548-5.992-10.85-8.99-18.91-8.99
			c-4.137,0-8.37,0.828-12.71,2.48c-4.34,1.656-8.423,3.981-12.245,6.975c-3.826,2.998-7.285,6.563-10.385,10.695
			c-3.1,4.137-5.377,8.68-6.82,13.64v94.86h-41.54v-162.44h37.511v30.07c5.991-10.332,14.671-18.392,26.04-24.18
			c11.363-5.784,24.18-8.68,38.439-8.68c10.124,0,18.392,1.86,24.8,5.58c6.403,3.72,11.364,8.578,14.88,14.57
			c3.512,5.997,5.938,12.816,7.285,20.46c1.342,7.648,2.016,15.398,2.016,23.25V319.844z"/>
		<path fill="#323230" d="M1222.242,311.474c-5.58,2.48-12.453,4.96-20.615,7.44c-8.166,2.479-16.691,3.72-25.575,3.72
			c-5.788,0-11.213-0.727-16.274-2.17c-5.066-1.443-9.509-3.769-13.33-6.976c-3.826-3.201-6.873-7.333-9.146-12.399
			c-2.276-5.062-3.409-11.209-3.409-18.445v-93.31h-21.08v-31.93h21.08v-52.7h41.54v52.7h34.409v31.93h-34.409v79.359
			c0,5.789,1.55,9.872,4.649,12.245c3.101,2.379,6.82,3.565,11.16,3.565s8.573-0.722,12.71-2.17c4.132-1.443,7.44-2.684,9.92-3.721
			L1222.242,311.474z"/>
		<path fill="#323230" d="M1424.668,263.113c0,9.301-1.859,17.467-5.58,24.49c-3.72,7.028-8.835,12.919-15.345,17.67
			c-6.51,4.757-14.057,8.37-22.63,10.851c-8.578,2.479-17.724,3.72-27.436,3.72h-106.329v-220.1h117.8
			c7.644,0,14.569,1.657,20.77,4.96c6.2,3.309,11.471,7.595,15.811,12.865s7.696,11.267,10.074,17.98
			c2.374,6.718,3.565,13.485,3.565,20.305c0,10.749-2.688,20.824-8.06,30.225c-5.377,9.407-13.229,16.382-23.561,20.925
			c12.604,3.72,22.577,10.385,29.915,19.995C1420.997,236.608,1424.668,248.65,1424.668,263.113z M1290.128,136.324v55.49h57.04
			c7.232,0,13.379-2.48,18.445-7.44c5.062-4.96,7.595-11.78,7.595-20.46c0-8.472-2.325-15.19-6.975-20.15
			c-4.65-4.96-10.385-7.44-17.205-7.44H1290.128z M1381.578,255.054c0-3.924-0.673-7.696-2.015-11.315
			c-1.347-3.613-3.153-6.767-5.425-9.454c-2.277-2.684-4.961-4.806-8.061-6.355s-6.51-2.325-10.229-2.325h-65.721v57.971h63.55
			c3.924,0,7.596-0.723,11.006-2.171c3.409-1.443,6.354-3.458,8.835-6.045c2.479-2.581,4.441-5.628,5.89-9.145
			C1380.852,262.702,1381.578,258.982,1381.578,255.054z"/>
		<path fill="#323230" d="M1528.208,322.943c-13.228,0-25.109-2.276-35.649-6.819c-10.54-4.544-19.481-10.695-26.815-18.445
			c-7.338-7.75-12.972-16.687-16.895-26.815c-3.929-10.123-5.891-20.77-5.891-31.93c0-11.363,1.962-22.111,5.891-32.24
			c3.923-10.124,9.557-19.065,16.895-26.815c7.334-7.75,16.275-13.897,26.815-18.445c10.54-4.543,22.422-6.82,35.649-6.82
			c13.224,0,25.057,2.276,35.495,6.82c10.434,4.548,19.322,10.695,26.66,18.445c7.333,7.75,12.967,16.691,16.896,26.815
			c3.923,10.128,5.89,20.876,5.89,32.24c0,11.16-1.967,21.807-5.89,31.93c-3.929,10.129-9.509,19.065-16.74,26.815
			c-7.236,7.75-16.12,13.901-26.66,18.445C1553.318,320.667,1541.432,322.943,1528.208,322.943z M1485.738,238.934
			c0,7.236,1.085,13.795,3.255,19.686c2.17,5.89,5.164,11.005,8.99,15.345c3.821,4.34,8.316,7.701,13.485,10.075
			c5.163,2.378,10.743,3.564,16.739,3.564c5.992,0,11.572-1.187,16.74-3.564c5.163-2.374,9.658-5.735,13.485-10.075
			c3.821-4.34,6.819-9.504,8.989-15.5c2.171-5.992,3.256-12.604,3.256-19.84c0-7.023-1.085-13.534-3.256-19.53
			c-2.17-5.992-5.168-11.16-8.989-15.5c-3.827-4.34-8.322-7.697-13.485-10.075c-5.168-2.373-10.748-3.565-16.74-3.565
			c-5.996,0-11.576,1.24-16.739,3.72c-5.169,2.48-9.664,5.89-13.485,10.23c-3.826,4.34-6.82,9.508-8.99,15.5
			C1486.823,225.4,1485.738,231.91,1485.738,238.934z"/>
		<path fill="#323230" d="M1715.757,322.943c-13.228,0-25.109-2.276-35.649-6.819c-10.54-4.544-19.481-10.695-26.815-18.445
			c-7.338-7.75-12.972-16.687-16.895-26.815c-3.929-10.123-5.891-20.77-5.891-31.93c0-11.363,1.962-22.111,5.891-32.24
			c3.923-10.124,9.557-19.065,16.895-26.815c7.334-7.75,16.275-13.897,26.815-18.445c10.54-4.543,22.422-6.82,35.649-6.82
			c13.224,0,25.057,2.276,35.495,6.82c10.434,4.548,19.322,10.695,26.66,18.445c7.333,7.75,12.967,16.691,16.896,26.815
			c3.923,10.128,5.89,20.876,5.89,32.24c0,11.16-1.967,21.807-5.89,31.93c-3.929,10.129-9.509,19.065-16.74,26.815
			c-7.236,7.75-16.12,13.901-26.66,18.445C1740.867,320.667,1728.98,322.943,1715.757,322.943z M1673.287,238.934
			c0,7.236,1.085,13.795,3.255,19.686c2.17,5.89,5.164,11.005,8.99,15.345c3.821,4.34,8.316,7.701,13.485,10.075
			c5.163,2.378,10.743,3.564,16.739,3.564c5.992,0,11.572-1.187,16.74-3.564c5.163-2.374,9.658-5.735,13.485-10.075
			c3.821-4.34,6.819-9.504,8.989-15.5c2.171-5.992,3.256-12.604,3.256-19.84c0-7.023-1.085-13.534-3.256-19.53
			c-2.17-5.992-5.168-11.16-8.989-15.5c-3.827-4.34-8.322-7.697-13.485-10.075c-5.168-2.373-10.748-3.565-16.74-3.565
			c-5.996,0-11.576,1.24-16.739,3.72c-5.169,2.48-9.664,5.89-13.485,10.23c-3.826,4.34-6.82,9.508-8.99,15.5
			C1674.372,225.4,1673.287,231.91,1673.287,238.934z"/>
		<path fill="#323230" d="M1938.956,319.844l-47.12-70.37l-22.32,22.01v48.36h-41.54v-226.3h41.54v137.33l65.101-73.16h44.33
			l-60.761,68.82l65.101,93.31H1938.956z"/>
	</g>
</g>
</svg>
